<?xml version="1.0" encoding="UTF-8"?>
<svg width="190" height="190" xmlns="http://www.w3.org/2000/svg" version="1.1" viewBox="0 0 178.5 168">
  <title id="svgTitle">Bildung Icon</title>
  <desc id="svgDesc">Eine Outline-Illustration: Ein offenes Buch, daneben eine Präsentationswand</desc>
  <path fill="#fff" d="M176.5,74h-58.3v-15h7.4c1.1,0,2-.9,2-2s-.9-2-2-2h-7.4v-12h7.4c1.1,0,2-.9,2-2s-.9-2-2-2h-7.4v-12h7.4c1.1,0,2-.9,2-2s-.9-2-2-2h-7.4V7.7c0-2.1-.8-4-2.3-5.4-1.5-1.4-3.4-2.2-5.4-2.2h-28.5c-6.6,0-12.9,2.6-17.6,7.2-2.3,2.3-4,4.9-5.3,7.7-1.2-2.8-3-5.5-5.3-7.7C49.1,2.6,42.9,0,36.2,0H7.7c-2.1,0-4,.8-5.4,2.2C.8,3.7,0,5.6,0,7.7v73.7c0,2.1.8,4,2.3,5.4,1.5,1.4,3.4,2.2,5.4,2.2h34.2c4,0,7.8,1.6,10.7,4.4,2.9,2.8,4.4,6.6,4.4,10.6s.9,2,2,2,2-.9,2-2c0-4,1.6-7.8,4.4-10.6,2.9-2.8,6.7-4.4,10.7-4.4h2.5v42c0,3.2,1.3,6.3,3.5,8.5,2.3,2.3,5.3,3.5,8.5,3.5h30.4l-21.8,21.6c-.8.8-.8,2,0,2.8.8.8,2,.8,2.8,0l23.8-23.6,23.8,23.6c.4.4.9.6,1.4.6s1-.2,1.4-.6c.8-.8.8-2.1,0-2.8l-21.8-21.6h30.4c3.2,0,6.3-1.2,8.5-3.5,2.3-2.2,3.5-5.3,3.5-8.5v-53h3c1.1,0,2-.9,2-2s-.9-2-2-2ZM55.5,90.6c-3.6-3.6-8.4-5.6-13.5-5.6H7.7c-1,0-1.9-.4-2.6-1.1-.7-.7-1.1-1.6-1.1-2.6V7.7c0-1,.4-1.9,1.1-2.6.7-.7,1.6-1.1,2.6-1.1h28.5c5.6,0,10.8,2.2,14.7,6.1,3.9,3.9,6.1,9.1,6.1,14.6v67.7c-.5-.6-1-1.3-1.6-1.8ZM76.2,85c-5.1,0-9.9,2-13.5,5.6-.6.6-1.1,1.2-1.6,1.8V24.7c0-5.5,2.2-10.7,6.1-14.6,3.9-3.9,9.2-6.1,14.7-6.1h28.5c1,0,1.9.4,2.6,1.1.7.7,1.1,1.6,1.1,2.6v15.3h-38.6c-1.1,0-2,.9-2,2s.9,2,2,2h38.6v12h-38.6c-1.1,0-2,.9-2,2s.9,2,2,2h38.6v12h-38.6c-1.1,0-2,.9-2,2s.9,2,2,2h38.6v15h-38.5c-1.1,0-2,.9-2,2s.9,2,2,2h3v7h-2.5ZM114.2,78v3.3c0,1-.4,1.9-1.1,2.6-.7.7-1.6,1.1-2.6,1.1h-27.8v-7h31.5ZM169.5,131c0,2.1-.8,4.1-2.4,5.7-1.5,1.5-3.6,2.3-5.7,2.3h-70.6c-2.1,0-4.2-.9-5.7-2.3-1.5-1.5-2.4-3.5-2.4-5.7v-42h27.8c2.1,0,4-.8,5.4-2.2,1.5-1.4,2.3-3.4,2.3-5.4v-3.3h51.3v53Z"/>
</svg>