<svg width="40" height="40" viewBox="0 0 40 40" fill="none" xmlns="http://www.w3.org/2000/svg">
<g id="Bildung">
<path id="Vector" d="M19.6035 11.4329V33.2783" stroke="#1E3791" stroke-width="2" stroke-linecap="round" stroke-linejoin="round"/>
<path id="Vector_2" d="M5.56039 31.4058C5.14655 31.4058 4.74966 31.2414 4.45703 30.9488C4.1644 30.6561 4 30.2593 4 29.8454V9.56039C4 9.14655 4.1644 8.74966 4.45703 8.45703C4.74966 8.1644 5.14655 8 5.56039 8H13.3623C15.0177 8 16.6052 8.65759 17.7758 9.82811C18.9463 10.9986 19.6039 12.5862 19.6039 14.2415C19.6039 12.5862 20.2615 10.9986 21.432 9.82811C22.6025 8.65759 24.1901 8 25.8454 8H33.6473C34.0612 8 34.4581 8.1644 34.7507 8.45703C35.0433 8.74966 35.2077 9.14655 35.2077 9.56039V29.8454C35.2077 30.2593 35.0433 30.6561 34.7507 30.9488C34.4581 31.2414 34.0612 31.4058 33.6473 31.4058H24.285C23.0435 31.4058 21.8528 31.899 20.9749 32.7769C20.0971 33.6548 19.6039 34.8454 19.6039 36.087C19.6039 34.8454 19.1107 33.6548 18.2328 32.7769C17.3549 31.899 16.1642 31.4058 14.9227 31.4058H5.56039Z" stroke="#1E3791" stroke-width="2" stroke-linecap="round" stroke-linejoin="round"/>
</g>
</svg>
