<?xml version="1.0" encoding="UTF-8"?>
<svg width="190" height="190" xmlns="http://www.w3.org/2000/svg" viewBox="0 0 204.09 204.09">
<title id="svgTitle">Kultur Icon</title>
<desc id="svgDesc">Eine Outline-Illustration: Zwei Masken, eine lachende, eine weinende (Symbolbild für Theater), daneben drei geometrische Formen (Dreieck, Quadrat, Kreis)</desc>

  <defs>
    <style>
      .cls-1 {
        fill: #fff;
        opacity: 0;
      }

      .cls-2 {
        fill: #fff;
      }
    </style>
  </defs>
  <g id="Layer_1-2" data-name="Layer 1">
    <rect class="cls-1" width="190" height="190"/>
    <g>
      <path class="cls-2" d="M119.03,117.14c-.03,1.16.27,2.3.85,3.3.58,1,1.43,1.82,2.45,2.38.92.5,1.94.76,2.98.76.09,0,.19,0,.28,0h43.7c1.14,0,2.27-.32,3.25-.92.98-.6,1.77-1.45,2.3-2.46.53-1.02.77-2.16.7-3.3-.07-1.12-.45-2.21-1.08-3.14l-21.8-35c-.59-.9-1.41-1.65-2.37-2.14-.96-.5-2.06-.74-3.12-.7-1.08.04-2.14.36-3.06.92-.9.55-1.65,1.33-2.18,2.25l-21.9,34.81c-.63.97-.98,2.1-1,3.26ZM123.67,116.2l21.95-34.88s.04-.07.06-.1c.16-.3.4-.54.69-.72.29-.18.62-.28.96-.29.02,0,.05,0,.07,0,.32,0,.63.08.91.22.3.16.56.39.72.63l21.81,35.01s.04.06.06.09c.2.29.32.64.35,1,.02.36-.05.71-.22,1.03-.17.32-.42.58-.72.77-.31.19-.66.29-1.01.29h-43.75s-.08,0-.12,0c-.37.02-.72-.06-1.04-.23-.32-.17-.58-.43-.77-.75-.18-.31-.27-.67-.26-1.03,0-.36.12-.72.33-1.04Z"/>
      <path class="cls-2" d="M129.66,142.81h-29.45c-4.44,0-8.05,3.61-8.05,8.05v29.45c0,4.44,3.61,8.05,8.05,8.05h29.45c4.44,0,8.05-3.61,8.05-8.05v-29.45c0-4.44-3.61-8.05-8.05-8.05ZM133.39,180.31c0,2.06-1.67,3.73-3.73,3.73h-29.45c-2.06,0-3.73-1.67-3.73-3.73v-29.45c0-2.06,1.67-3.73,3.73-3.73h29.45c2.06,0,3.73,1.67,3.73,3.73v29.45Z"/>
      <path class="cls-2" d="M179.72,142.81c-12.56,0-22.77,10.22-22.77,22.77s10.22,22.77,22.77,22.77,22.77-10.22,22.77-22.77-10.22-22.77-22.77-22.77ZM179.72,184.04c-10.18,0-18.46-8.28-18.46-18.46s8.28-18.46,18.46-18.46,18.46,8.28,18.46,18.46-8.28,18.46-18.46,18.46Z"/>
      <path class="cls-2" d="M75.27,40.92c0-1.19-.97-2.16-2.16-2.16h-.06c-1.19,0-2.13.97-2.13,2.16s1,2.16,2.19,2.16,2.16-.97,2.16-2.16Z"/>
      <path class="cls-2" d="M96.13,38.76h-.06c-1.19,0-2.13.97-2.13,2.16s1,2.16,2.19,2.16,2.16-.97,2.16-2.16-.97-2.16-2.16-2.16Z"/>
      <path class="cls-2" d="M29.94,79.62h-.06c-1.19,0-2.13.97-2.13,2.16s1,2.16,2.19,2.16,2.16-.97,2.16-2.16-.97-2.16-2.16-2.16Z"/>
      <path class="cls-2" d="M107.94,90.32c6.07-9.11,13.31-26.07,13.31-55.15,0-12.89-12.34-19.42-36.69-19.42s-36.69,6.54-36.69,19.42c0,3.59.11,6.99.32,10.22-5.91.96-12.89,3.67-22.25,8.62-13.77,7.87-21.78,15.73-23.81,23.35-1.08,4.07-.5,8.06,1.72,11.83,8.09,14.03,25.12,38.48,48.18,44.56,3.14.83,6.19,1.24,9.01,1.24,3.97,0,7.48-.81,10.19-2.4,5.25-2.92,11.32-11.5,11.98-26.27.47.04.92.07,1.36.07,6.12,0,15.48-4.22,23.38-16.07ZM69.08,128.84c-3.63,2.14-9.6,2.41-15.95.73-9.25-2.44-27.47-11.21-45.55-42.56-1.64-2.8-2.06-5.59-1.27-8.55,1.72-6.47,9.05-13.44,21.72-20.68,8.7-4.61,15.16-7.16,20.51-8.09.67,7.09,1.79,13.26,3.2,18.6-.4-.47-.98-.77-1.64-.77h-.06c-1.19,0-2.13.97-2.13,2.16s1,2.16,2.19,2.16c1.06,0,1.94-.77,2.12-1.78,2.57,9.09,5.92,15.66,8.98,20.24,5.74,8.61,12.24,13.18,17.72,15.04-.44,14.39-6.27,21.51-9.83,23.49ZM84.56,102.07c-.72,0-1.52-.1-2.37-.27-.32-.19-.69-.3-1.09-.3-.03,0-.06,0-.08,0-4.69-1.37-10.8-5.4-16.25-13.58-4.82-7.23-10.41-19.76-12.09-40.14.06-.23.09-.47.07-.72-.02-.23-.08-.44-.17-.64-.26-3.52-.4-7.26-.4-11.26,0-10.02,10.89-15.11,32.37-15.11s32.37,5.08,32.37,15.11c0,28-6.84,44.15-12.59,52.76-6.96,10.44-15.01,14.15-19.79,14.15Z"/>
      <path class="cls-2" d="M91.09,61.84c-1.82,1.82-4.14,2.82-6.53,2.82s-4.71-1-6.53-2.82c-.84-.84-2.21-.84-3.05,0-.84.84-.84,2.21,0,3.05,2.63,2.63,6.04,4.09,9.58,4.09s6.95-1.45,9.58-4.09c.84-.84.84-2.21,0-3.05-.84-.84-2.21-.84-3.05,0Z"/>
      <path class="cls-2" d="M59.28,91.23c-3.32-1-6.86-.6-9.96,1.12-3.23,1.79-5.56,4.79-6.55,8.44-.31,1.15.36,2.34,1.51,2.65.19.05.38.08.57.08.95,0,1.82-.63,2.08-1.59.69-2.52,2.28-4.58,4.48-5.8,2.07-1.15,4.42-1.42,6.63-.76,1.14.34,2.35-.31,2.69-1.45.34-1.14-.31-2.34-1.45-2.69Z"/>
    </g>
  </g>
</svg>