<svg role="img" aria-labelledby="svgTitle svgDesc" width="204" height="204" viewBox="0 0 204 204" fill="none" xmlns="http://www.w3.org/2000/svg">
<title id="svgTitle">Kultur Icon</title>
<desc id="svgDesc">Eine Outline-Illustration: Zwei Masken, eine lachende, eine weinende (Symbolbild für Theater), daneben drei geometrische Formen (Dreieck, Quadrat, Kreis)</desc>
<g clip-path="url(#clip0_627_364)">
<path d="M127.304 119.583C126.6 119.622 125.9 119.465 125.28 119.13C124.66 118.795 124.144 118.295 123.791 117.686C123.437 117.076 123.259 116.381 123.276 115.676C123.293 114.972 123.504 114.286 123.887 113.694L144.225 81.375C144.544 80.7996 145.007 80.3164 145.568 79.9724C146.13 79.6284 146.77 79.4353 147.428 79.4116C148.086 79.388 148.739 79.5348 149.323 79.8376C149.908 80.1405 150.404 80.5892 150.764 81.1403L170.971 113.579C171.369 114.151 171.603 114.821 171.648 115.517C171.693 116.212 171.547 116.907 171.225 117.525C170.903 118.144 170.419 118.662 169.824 119.025C169.229 119.388 168.545 119.581 167.848 119.583H127.304Z" stroke="white" stroke-width="4" stroke-linecap="round" stroke-linejoin="round"/>
<path d="M131.125 141.417H103.833C100.819 141.417 98.375 143.86 98.375 146.875V174.167C98.375 177.181 100.819 179.625 103.833 179.625H131.125C134.14 179.625 136.583 177.181 136.583 174.167V146.875C136.583 143.86 134.14 141.417 131.125 141.417Z" stroke="white" stroke-width="4" stroke-linecap="round" stroke-linejoin="round"/>
<path d="M177.521 179.625C188.072 179.625 196.625 171.072 196.625 160.521C196.625 149.97 188.072 141.417 177.521 141.417C166.97 141.417 158.417 149.97 158.417 160.521C158.417 171.072 166.97 179.625 177.521 179.625Z" stroke="white" stroke-width="4" stroke-linecap="round" stroke-linejoin="round"/>
<path d="M57.3335 71.6666H57.3873" stroke="white" stroke-width="4" stroke-linecap="round" stroke-linejoin="round"/>
<path d="M78.6665 45H78.7203" stroke="white" stroke-width="4" stroke-linecap="round" stroke-linejoin="round"/>
<path d="M100 45H100.054" stroke="white" stroke-width="4" stroke-linecap="round" stroke-linejoin="round"/>
<path d="M38.6665 82.8667H38.7203" stroke="white" stroke-width="4" stroke-linecap="round" stroke-linejoin="round"/>
<path d="M121.333 39.6666C121.333 87.6666 100 103.667 89.3335 103.667C78.6668 103.667 57.3335 87.6666 57.3335 39.6666C57.3335 29 68.0002 23.6666 89.3335 23.6666C110.667 23.6666 121.333 29 121.333 39.6666Z" stroke="white" stroke-width="4" stroke-linecap="round" stroke-linejoin="round"/>
<path d="M96.8 65.8C92.5334 70.0667 86.1334 70.0667 81.8667 65.8" stroke="white" stroke-width="4" stroke-linecap="round" stroke-linejoin="round"/>
<path d="M57.8666 50.8667C51.9999 51.4 45.0666 54.0667 35.9999 58.8667C17.3332 69.5334 10.9332 79.6667 16.2666 88.7334C40.2666 130.333 66.9332 133.533 75.9999 128.2C80.7999 125.533 86.1332 117 86.1332 103.133" stroke="white" stroke-width="4" stroke-linecap="round" stroke-linejoin="round"/>
<path d="M52.5332 101C54.1332 95.1333 59.9999 91.9333 65.3332 93.5333" stroke="white" stroke-width="4" stroke-linecap="round" stroke-linejoin="round"/>
</g>
<defs>
<clipPath id="clip0_627_364">
<rect width="204" height="204" fill="white"/>
</clipPath>
</defs>
</svg>
