<svg width="40" height="40" viewBox="0 0 40 40" fill="none" xmlns="http://www.w3.org/2000/svg">
<g id="Kultur">
<path id="Vector" d="M17.1904 19.3474H17.2059" stroke="#1E3791" stroke-width="2" stroke-linecap="round" stroke-linejoin="round"/>
<path id="Vector_2" d="M23.1226 11.9321H23.138" stroke="#1E3791" stroke-width="2" stroke-linecap="round" stroke-linejoin="round"/>
<path id="Vector_3" d="M29.0547 11.9321H29.0702" stroke="#1E3791" stroke-width="2" stroke-linecap="round" stroke-linejoin="round"/>
<path id="Vector_4" d="M12 22.4617H12.0155" stroke="#1E3791" stroke-width="2" stroke-linecap="round" stroke-linejoin="round"/>
<path id="Vector_5" d="M34.9869 10.4491C34.9869 23.7965 29.0548 28.2456 26.0887 28.2456C23.1226 28.2456 17.1904 23.7965 17.1904 10.4491C17.1904 7.48304 20.1565 6 26.0887 6C32.0208 6 34.9869 7.48304 34.9869 10.4491Z" stroke="#1E3791" stroke-width="2" stroke-linecap="round" stroke-linejoin="round"/>
<path id="Vector_6" d="M28.1652 17.7161C26.9788 18.9025 25.1991 18.9025 24.0127 17.7161" stroke="#1E3791" stroke-width="2" stroke-linecap="round" stroke-linejoin="round"/>
<path id="Vector_7" d="M17.3387 13.5635C15.7073 13.7118 13.7794 14.4533 11.2582 15.788C6.06755 18.7541 4.2879 21.5719 5.77094 24.0931C12.4446 35.6608 19.8598 36.5506 22.381 35.0676C23.7157 34.326 25.1988 31.9532 25.1988 28.0973" stroke="#1E3791" stroke-width="2" stroke-linecap="round" stroke-linejoin="round"/>
<path id="Vector_8" d="M15.8555 27.5041C16.3004 25.8728 17.9317 24.9829 19.4148 25.4279" stroke="#1E3791" stroke-width="2" stroke-linecap="round" stroke-linejoin="round"/>
</g>
</svg>
