<?xml version="1.0" encoding="UTF-8"?>
<svg width="190" height="190" xmlns="http://www.w3.org/2000/svg" version="1.1" viewBox="0 0 176 178.4">
  <title id="svgTitle">Neue Technologien Icon</title>
  <desc id="svgDesc">Eine Outline-Illustration: Ein Roboter, daneben drei diagonal angeordnete Punkte durch eine Linie verbunden</desc>
  <path fill="#fff" d="M93.3,71.4v-17.8h7.9c1.1,0,2-.9,2-2s-.9-2-2-2h-7.9v-17.8c0-6.6-5.3-11.9-11.9-11.9h-27.8V2c0-1.1-.9-2-2-2h-19.8c-1.1,0-2,.9-2,2s.9,2,2,2h17.8v15.8h-27.8c-6.6,0-11.9,5.3-11.9,11.9v17.8H2c-1.1,0-2,.9-2,2s.9,2,2,2h7.9v17.8c0,6.6,5.3,11.9,11.9,11.9h59.5c6.6,0,11.9-5.3,11.9-11.9ZM13.9,71.4V31.8c0-4.4,3.6-7.9,7.9-7.9h59.5c4.4,0,7.9,3.6,7.9,7.9v39.7c0,4.4-3.6,7.9-7.9,7.9H21.8c-4.4,0-7.9-3.6-7.9-7.9Z"/>
  <path fill="#fff" d="M66.5,44.6c-1.1,0-2,.9-2,2v9.9c0,1.1.9,2,2,2s2-.9,2-2v-9.9c0-1.1-.9-2-2-2Z"/>
  <path fill="#fff" d="M36.7,44.6c-1.1,0-2,.9-2,2v9.9c0,1.1.9,2,2,2s2-.9,2-2v-9.9c0-1.1-.9-2-2-2Z"/>
  <path fill="#fff" d="M157.8,142.2c-5.9,0-11.2,2.9-14.5,7.3l-33.4-19.5c1-2.2,1.6-4.7,1.6-7.3s-.6-5.1-1.6-7.3l33.4-19.5c3.3,4.4,8.6,7.3,14.5,7.3,10,0,18.1-8.1,18.1-18.1s-8.1-18.1-18.1-18.1-18.1,8.1-18.1,18.1.6,5.1,1.6,7.3l-33.4,19.5c-3.3-4.4-8.6-7.3-14.5-7.3-10,0-18.1,8.1-18.1,18.1s8.1,18.1,18.1,18.1,11.2-2.9,14.5-7.3l33.4,19.5c-1,2.3-1.6,4.7-1.6,7.4,0,10,8.1,18.1,18.1,18.1s18.1-8.1,18.1-18.1-8.1-18.1-18.1-18.1ZM157.8,70.9c7.8,0,14.1,6.3,14.1,14.1s-6.3,14.1-14.1,14.1-14.1-6.3-14.1-14.1,6.3-14.1,14.1-14.1ZM93.3,136.8c-7.8,0-14.1-6.3-14.1-14.1s6.3-14.1,14.1-14.1,14.1,6.3,14.1,14.1-6.3,14.1-14.1,14.1ZM157.8,174.4c-7.8,0-14.1-6.3-14.1-14.1s.6-4.8,1.8-6.8c0,0,.1-.2.2-.3,0,0,0-.2.1-.3,2.5-4,6.9-6.7,12-6.7,7.8,0,14.1,6.3,14.1,14.1s-6.3,14.1-14.1,14.1Z"/>
</svg>