<?xml version="1.0" encoding="UTF-8"?>
<svg width="190" height="190" xmlns="http://www.w3.org/2000/svg" version="1.1" viewBox="0 0 176.9 176">
  <title id="svgTitle">Prototyping Icon</title>
<desc id="svgDesc">Eine Outline-Illustration: Ein Monitor, ein Smartphone und ein Play-Button</desc>
  <path fill="#fff" d="M59.7,153.2c-1.1,0-2-.9-2-2v-26.2c0-1.1.9-2,2-2s2,.9,2,2v26.2c0,1.1-.9,2-2,2Z"/>
  <path fill="#fff" d="M75.6,153.2h-33.1c-1.1,0-2-.9-2-2s.9-2,2-2h33.1c1.1,0,2,.9,2,2s-.9,2-2,2Z"/>
  <path fill="#fff" d="M143.8,175.3h-32.7c-3.8,0-6.7-4.4-6.7-10.3v-58.3c0-5.9,2.9-10.3,6.7-10.3h32.7c3.8,0,6.7,4.4,6.7,10.3v58.3c0,5.9-2.9,10.3-6.7,10.3ZM111.1,100.3c-1.1,0-2.7,2.5-2.7,6.3v58.3c0,3.8,1.6,6.3,2.7,6.3h32.7c1.1,0,2.7-2.5,2.7-6.3v-58.3c0-3.8-1.6-6.3-2.7-6.3h-32.7Z"/>
  <path fill="#fff" d="M104.7,127.3H15.2c-8.3,0-14.8-4.4-14.8-10.1v-56.8c0-5.7,6.5-10.1,14.8-10.1h79.7c1.1,0,2,.9,2,2s-.9,2-2,2H15.2c-5.8,0-10.8,2.8-10.8,6.1v56.8c0,3.3,4.9,6.1,10.8,6.1h89.4c1.1,0,2,.9,2,2s-.9,2-2,2ZM117.5,99.8c-1.1,0-2-.9-2-2v-15c0-1.1.9-2,2-2s2,.9,2,2v15c0,1.1-.9,2-2,2Z"/>
  <path fill="#fff" d="M165.4,84h-61.8c-6,0-10.8-4.9-10.8-10.8V11.4c0-6,4.9-10.8,10.8-10.8h61.8c6,0,10.8,4.9,10.8,10.8v61.8c0,6-4.9,10.8-10.8,10.8ZM103.5,4.5c-3.8,0-6.8,3.1-6.8,6.8v61.8c0,3.8,3.1,6.8,6.8,6.8h61.8c3.8,0,6.8-3.1,6.8-6.8V11.4c0-3.8-3.1-6.8-6.8-6.8h-61.8Z"/>
  <path fill="#fff" d="M121.2,62c-.3,0-.6,0-.9-.2-.7-.3-1.1-1-1.1-1.8V24.6c0-.7.4-1.4,1.1-1.8.6-.3,1.4-.3,2.1,0l26.5,17.7c.6.4.9,1,.9,1.7s-.3,1.3-.9,1.7l-26.5,17.7c-.3.2-.7.3-1.1.3ZM123.2,28.4v27.9l20.9-13.9-20.9-13.9Z"/>
</svg>