<svg role="img" aria-labelledby="svgTitle svgDesc" width="204" height="204" viewBox="0 0 204 204" fill="none" xmlns="http://www.w3.org/2000/svg">
<title id="svgTitle">Smart City Icon</title>
<desc id="svgDesc">Eine Outline-Illustration: Eine Glühbirne, daneben ein städtisches Gebäude</desc>
<path d="M110.144 186.392V92.5364C110.144 89.7706 111.242 87.118 113.198 85.1623C115.154 83.2066 117.806 82.1079 120.572 82.1079H162.286C165.052 82.1079 167.704 83.2066 169.66 85.1623C171.616 87.118 172.714 89.7706 172.714 92.5364V186.392H110.144Z" stroke="white" stroke-width="4" stroke-linecap="round" stroke-linejoin="round"/>
<path d="M110.144 134.25H99.7151C96.9493 134.25 94.2968 135.349 92.341 137.305C90.3853 139.261 89.2866 141.913 89.2866 144.679V175.964C89.2866 178.73 90.3853 181.383 92.341 183.338C94.2968 185.294 96.9493 186.393 99.7151 186.393H110.144" stroke="white" stroke-width="4" stroke-linecap="round" stroke-linejoin="round"/>
<path d="M172.714 118.608H183.143C185.909 118.608 188.561 119.707 190.517 121.662C192.473 123.618 193.571 126.271 193.571 129.036V175.964C193.571 178.73 192.473 181.383 190.517 183.338C188.561 185.294 185.909 186.393 183.143 186.393H172.714" stroke="white" stroke-width="4" stroke-linecap="round" stroke-linejoin="round"/>
<path d="M131 102.965H151.857" stroke="white" stroke-width="4" stroke-linecap="round" stroke-linejoin="round"/>
<path d="M131 123.822H151.857" stroke="white" stroke-width="4" stroke-linecap="round" stroke-linejoin="round"/>
<path d="M131 144.679H151.857" stroke="white" stroke-width="4" stroke-linecap="round" stroke-linejoin="round"/>
<path d="M131 165.536H151.857" stroke="white" stroke-width="4" stroke-linecap="round" stroke-linejoin="round"/>
<path d="M78.2132 80.999C79.2561 75.7847 81.8632 72.1348 86.0346 67.9634C91.2488 63.2706 93.8559 56.4921 93.8559 49.7136C93.8559 41.4162 90.5598 33.4586 84.6926 27.5915C78.8255 21.7244 70.8679 18.4282 62.5705 18.4282C54.2731 18.4282 46.3156 21.7244 40.4484 27.5915C34.5813 33.4586 31.2852 41.4162 31.2852 49.7136C31.2852 54.9278 32.328 61.1849 39.1065 67.9634C42.7565 71.6133 45.885 75.7847 46.9278 80.999" stroke="white" stroke-width="4" stroke-linecap="round" stroke-linejoin="round"/>
<path d="M46.9282 101.856H78.2136" stroke="white" stroke-width="4" stroke-linecap="round" stroke-linejoin="round"/>
<path d="M52.1421 122.713H72.999" stroke="white" stroke-width="4" stroke-linecap="round" stroke-linejoin="round"/>
</svg>
