<?xml version="1.0" encoding="UTF-8"?>
<svg width="190" height="190" xmlns="http://www.w3.org/2000/svg" version="1.1" viewBox="0 0 166.3 172">
  <title id="svgTitle">Smart City Icon</title>
  <desc id="svgDesc">Eine Outline-Illustration: Eine Glühbirne, daneben ein städtisches Gebäude</desc>
  <path fill="#fff" d="M162.6,103.8c-2.3-2.3-5.5-3.6-8.8-3.6h-8.4v-24.1c0-3.3-1.3-6.4-3.6-8.8-2.3-2.3-5.5-3.6-8.8-3.6h-41.7c-3.3,0-6.4,1.3-8.8,3.6s-3.6,5.5-3.6,8.8v39.7h-8.4c-3.3,0-6.4,1.3-8.8,3.6-2.3,2.3-3.6,5.5-3.6,8.8v31.3c0,3.3,1.3,6.4,3.6,8.8,2.3,2.3,5.5,3.6,8.8,3.6h10.4s0,0,0,0h62.6s0,0,0,0h10.4c3.3,0,6.4-1.3,8.8-3.6s3.6-5.5,3.6-8.8v-46.9c0-3.3-1.3-6.4-3.6-8.8ZM64.5,165.5c-1.6-1.6-2.5-3.7-2.5-6v-31.3c0-2.3.9-4.4,2.5-6,1.6-1.6,3.7-2.5,6-2.5h8.4v48.1h-8.4c-2.3,0-4.4-.9-6-2.5ZM82.9,76.1c0-2.3.9-4.4,2.5-6,1.6-1.6,3.7-2.5,6-2.5h41.7c2.3,0,4.4.9,6,2.5,1.6,1.6,2.5,3.7,2.5,6v91.9h-58.6v-91.9ZM162.3,159.5c0,2.3-.9,4.4-2.5,6s-3.7,2.5-6,2.5h-8.4v-63.8h8.4c2.2,0,4.4.9,6,2.5,1.6,1.6,2.5,3.7,2.5,6v46.9Z"/>
  <path fill="#fff" d="M122.6,84.5h-20.9c-1.1,0-2,.9-2,2s.9,2,2,2h20.9c1.1,0,2-.9,2-2s-.9-2-2-2Z"/>
  <path fill="#fff" d="M122.6,105.4h-20.9c-1.1,0-2,.9-2,2s.9,2,2,2h20.9c1.1,0,2-.9,2-2s-.9-2-2-2Z"/>
  <path fill="#fff" d="M122.6,126.3h-20.9c-1.1,0-2,.9-2,2s.9,2,2,2h20.9c1.1,0,2-.9,2-2s-.9-2-2-2Z"/>
  <path fill="#fff" d="M122.6,147.1h-20.9c-1.1,0-2,.9-2,2s.9,2,2,2h20.9c1.1,0,2-.9,2-2s-.9-2-2-2Z"/>
  <path fill="#fff" d="M48.9,66.6c-.1,0-.3,0-.4,0-1.1-.2-1.8-1.3-1.6-2.4,1.2-5.9,4.2-9.9,8.4-14.1,0,0,0,0,0,0,4.5-4.1,7.2-10.2,7.2-16.8s-3-15.2-8.6-20.7c-5.5-5.5-12.9-8.6-20.7-8.6s-15.2,3-20.7,8.6c-5.5,5.5-8.6,12.9-8.6,20.7s.9,10.5,7.2,16.8c3,3,7.1,7.7,8.4,14.1.2,1.1-.5,2.1-1.6,2.4-1.1.2-2.1-.5-2.4-1.6-.8-4-3.1-7.9-7.3-12C1,45.5,0,38.5,0,33.3,0,24.4,3.5,16,9.7,9.7S24.4,0,33.3,0s17.2,3.5,23.5,9.7c6.3,6.3,9.7,14.6,9.7,23.5s-3.1,14.8-8.4,19.7c-3.7,3.7-6.3,7.1-7.2,12-.2,1-1,1.6-2,1.6Z"/>
  <path fill="#fff" d="M48.9,87.4h-31.3c-1.1,0-2-.9-2-2s.9-2,2-2h31.3c1.1,0,2,.9,2,2s-.9,2-2,2Z"/>
</svg>