<?xml version="1.0" encoding="UTF-8"?>
<svg id="Layer_1" xmlns="http://www.w3.org/2000/svg" version="1.1" viewBox="0 0 40 40">
  <!-- Generator: Adobe Illustrator 29.0.1, SVG Export Plug-In . SVG Version: 2.1.0 Build 192)  -->
  <defs>
    <style>
      .st0 {
        fill: #1e3791;
      }
    </style>
  </defs>
  <g id="Smart_City">
    <g id="Vector">
      <path class="st0" d="M24,23.7c0,0-.1,0-.2,0-.5-.1-.9-.6-.8-1.2.3-1.7,1.3-2.9,2.3-3.8,1.1-1,1.7-2.4,1.7-4s-.7-3.6-2-5c-1.3-1.3-3.1-2-5-2s-3.6.7-4.9,2-2.1,3.1-2.1,5,.2,2.5,1.7,4c.8.8,1.9,2.1,2.3,3.8.1.5-.2,1.1-.8,1.2-.5.1-1.1-.2-1.2-.8-.2-.9-.7-1.8-1.7-2.8-2-2-2.3-3.9-2.3-5.4,0-2.4.9-4.7,2.6-6.4,1.7-1.7,4-2.6,6.4-2.6s4.7.9,6.4,2.6c1.7,1.7,2.6,4,2.6,6.4s-.8,4.1-2.3,5.4c-1,1-1.5,1.8-1.7,2.8,0,.5-.5.8-1,.8Z"/>
    </g>
    <g id="Vector_2">
      <path class="st0" d="M24,29h-8c-.6,0-1-.4-1-1s.4-1,1-1h8c.6,0,1,.4,1,1s-.4,1-1,1Z"/>
    </g>
    <g id="Vector_3">
      <path class="st0" d="M22.7,34.3h-5.3c-.6,0-1-.4-1-1s.4-1,1-1h5.3c.6,0,1,.4,1,1s-.4,1-1,1Z"/>
    </g>
  </g>
</svg>