<?xml version="1.0" encoding="UTF-8"?>
<svg width="190" height="190" xmlns="http://www.w3.org/2000/svg" version="1.1" viewBox="0 0 142.3 142.3">
  <title id="svgTitle">Weitere Aktivitäten Icon</title>
<desc id="svgDesc">Eine Outline-Illustration, ein Plus in einem Kreis</desc>
  <path fill="#fff" d="M71.2,142.3C31.9,142.3,0,110.4,0,71.2S31.9,0,71.2,0s71.2,31.9,71.2,71.2-31.9,71.2-71.2,71.2ZM71.2,4C34.1,4,4,34.1,4,71.2s30.1,67.2,67.2,67.2,67.2-30.1,67.2-67.2S108.2,4,71.2,4Z"/>
  <path fill="#fff" d="M98.8,73.2h-55.3c-1.1,0-2-.9-2-2s.9-2,2-2h55.3c1.1,0,2,.9,2,2s-.9,2-2,2Z"/>
  <path fill="#fff" d="M71.2,100.8c-1.1,0-2-.9-2-2v-55.3c0-1.1.9-2,2-2s2,.9,2,2v55.3c0,1.1-.9,2-2,2Z"/>
</svg>