<?xml version="1.0" encoding="UTF-8"?>
<svg id="Layer_1" xmlns="http://www.w3.org/2000/svg" xmlns:v="https://vecta.io/nano" version="1.1" viewBox="0 0 186.7 140.7">
  <!-- Generator: Adobe Illustrator 29.0.1, SVG Export Plug-In . SVG Version: 2.1.0 Build 192)  -->
  <defs>
    <style>
      .st0 {
        fill: #1e3791;
      }
    </style>
  </defs>
  <path class="st0" d="M8.1,93.3l2.3-1.4,39,6.1-1.5,1.5s-39.8-6.2-39.8-6.2ZM110.9,47.6l-1.3,1.3,43.9,19.3-.4-2.1s-42.2-18.5-42.2-18.5ZM94.1,40.2l-1.8,1.1,8.4,3.7,1.3-1.3-7.9-3.5ZM186.7,80.4l-18.2,40.1-110.3-18.7,2.9-3.1,103.8,17.7-19.5-108.3L16.6,140.7,0,91.1,36.7,14.4l47.9,21.1-3.6,2.2-42.6-18.8L5.6,87.5,147.4,0l20.4,113.3,14.2-31.1-18.4-8.1-.7-4.2s23.8,10.5,23.8,10.5ZM18.1,134.1L139.9,8.8,4.2,92.5l13.9,41.6h0Z"/>
</svg>