<svg width="64" height="64" viewBox="0 0 64 64" fill="none" xmlns="http://www.w3.org/2000/svg">
<g id="Facebook">
<path id="Vector" d="M64 32C64 14.3269 49.6731 0 32 0C14.3269 0 0 14.3269 0 32C0 49.6731 14.3269 64 32 64C49.6731 64 64 49.6731 64 32Z" fill="#1E3791"/>
<path id="Vector_2" d="M26.8571 50.989V33.6669H21.0293V26.9105H26.8571V21.9382C26.8571 16.1591 30.3901 13.0108 35.5414 13.0108C37.2835 13.0086 39.0235 13.0948 40.7568 13.2739V19.3162H37.1752C34.3564 19.3162 33.8302 20.6515 33.8302 22.6059V26.9105H40.5225L39.6492 33.6669H33.8324V50.989H26.8593H26.8571Z" fill="white"/>
</g>
</svg>
