<svg width="64" height="64" viewBox="0 0 64 64" fill="none" xmlns="http://www.w3.org/2000/svg">
<g id="GitHub">
<path id="Vector" d="M32 0C49.6604 0 64 14.3396 64 32C64 49.6626 49.6604 64 32 64C14.3396 64 2.55616e-07 49.6604 2.55616e-07 32C-0.00221061 14.3396 14.3374 0 32 0Z" fill="#1E3791"/>
<g id="Group">
<path id="Vector_2" fill-rule="evenodd" clip-rule="evenodd" d="M25.9377 52.3533V47.7768C19.0995 49.2537 17.6735 44.874 17.6735 44.874C16.557 42.033 14.9453 41.2681 14.9453 41.2681C12.7146 39.7492 15.1111 39.7801 15.1111 39.7801C16.6919 39.9968 18.0826 40.9298 18.8807 42.3116C21.0716 46.0723 24.6355 44.9867 26.0394 44.3787C26.1434 43.1318 26.6983 41.9645 27.6003 41.0934C22.135 40.4744 16.3912 38.3564 16.3912 28.9337C16.3559 26.4907 17.2667 24.1295 18.9315 22.3431C18.1732 20.2229 18.2594 17.8926 19.1681 15.8343C19.1681 15.8343 21.233 15.1733 25.9245 18.3547C29.9549 17.2537 34.2086 17.2537 38.239 18.3547C42.9392 15.1733 44.9954 15.8343 44.9954 15.8343C45.9062 17.8926 45.9902 20.2229 45.2319 22.3431C46.8945 24.1317 47.8009 26.4929 47.7634 28.9337C47.7634 38.3851 42.0195 40.4633 36.5454 41.0713C37.7282 42.2806 38.334 43.941 38.208 45.6279V52.3732L25.9355 52.3533H25.9377Z" fill="white"/>
<path id="Vector_3" d="M16.7551 40.9186C16.7551 41.0424 16.5187 41.0733 16.342 40.9916C16.1675 40.9098 16.0637 40.7441 16.1145 40.6203C16.1653 40.4966 16.3619 40.4657 16.5386 40.5474C16.7131 40.6292 16.8169 40.7949 16.7551 40.9186Z" fill="white"/>
<path id="Vector_4" d="M17.7574 42.0234C17.6447 42.1361 17.4062 42.0853 17.2515 41.9107C17.1013 41.7848 17.0704 41.566 17.1786 41.4047C17.3023 41.292 17.5188 41.3428 17.6845 41.5174C17.8501 41.692 17.8811 41.9195 17.7574 42.0234Z" fill="white"/>
<path id="Vector_5" d="M18.728 43.4476C18.5734 43.5515 18.326 43.4476 18.1802 43.2311C18.0366 43.0145 18.0256 42.745 18.1802 42.6433C18.3349 42.5395 18.5734 42.6433 18.728 42.8488C18.8827 43.0543 18.8827 43.3349 18.728 43.4476Z" fill="white"/>
<path id="Vector_6" d="M20.0501 44.8115C19.9153 44.9551 19.6259 44.9153 19.4205 44.7187C19.2151 44.522 19.1422 44.2326 19.2858 44.0889C19.4293 43.9453 19.7099 43.9851 19.9153 44.1818C20.1208 44.3784 20.1936 44.6679 20.0501 44.8115Z" fill="white"/>
<path id="Vector_7" d="M21.8893 45.6078C21.8275 45.7934 21.5491 45.8862 21.2708 45.8044C20.9924 45.7227 20.8157 45.4951 20.8688 45.2984C20.9196 45.1018 21.2089 45.02 21.4873 45.1018C21.7656 45.1835 21.9423 45.4111 21.8893 45.6078Z" fill="white"/>
<path id="Vector_8" d="M23.8916 45.7515C23.8916 45.957 23.6641 46.1227 23.3747 46.1227C23.0853 46.1227 22.8379 45.9681 22.8379 45.7714C22.8379 45.5748 23.0654 45.4002 23.3636 45.3892C23.6618 45.3781 23.8894 45.5549 23.8894 45.7515H23.8916Z" fill="white"/>
<path id="Vector_9" d="M25.7734 45.4331C25.7734 45.6297 25.5989 45.8352 25.3095 45.8883C25.0201 45.9391 24.7617 45.8264 24.7307 45.6297C24.6998 45.4331 24.8964 45.2165 25.1858 45.1657C25.4751 45.1149 25.7336 45.2386 25.7734 45.4353V45.4331Z" fill="white"/>
</g>
</g>
</svg>
