<svg width="64" height="64" viewBox="0 0 64 64" fill="none" xmlns="http://www.w3.org/2000/svg">
<g id="Instagram">
<path id="Vector" d="M31.9978 0C49.6604 0 64 14.3396 64 32C64 49.6626 49.6604 64 32 64C14.3396 64 2.55616e-07 49.6604 2.55616e-07 32C-0.00221061 14.3396 14.3374 0 31.9978 0Z" fill="#1E3791"/>
<path id="Vector_2" d="M31.9979 17.318C36.7799 17.318 37.3503 17.318 39.2406 17.4241C40.377 17.4351 41.5045 17.643 42.568 18.0409C44.1266 18.6467 45.3581 19.8781 45.9639 21.4368C46.3618 22.5024 46.5719 23.6278 46.5807 24.7641C46.6714 26.6544 46.6868 27.227 46.6868 32.0069C46.6868 36.7868 46.6868 37.3594 46.5807 39.2497C46.5719 40.3861 46.3618 41.5136 45.9639 42.577C45.3581 44.1357 44.1266 45.3672 42.568 45.9729C41.5023 46.3709 40.377 46.5809 39.2406 46.5898C37.3503 46.6804 36.7866 46.6959 31.9979 46.6959C27.2091 46.6959 26.6454 46.6959 24.7551 46.5898C23.6187 46.5787 22.4911 46.3709 21.4277 45.9729C19.8691 45.3672 18.6376 44.1357 18.0318 42.577C17.6339 41.5114 17.4239 40.3861 17.415 39.2497C17.3244 37.3594 17.3089 36.7868 17.3089 32.0069C17.3089 27.227 17.3089 26.6544 17.415 24.7641C17.4239 23.6278 17.6339 22.5002 18.0318 21.4368C18.6376 19.8781 19.8691 18.6467 21.4277 18.0409C22.4933 17.643 23.6187 17.4329 24.7551 17.4241C26.6454 17.3334 27.218 17.318 31.9979 17.318ZM31.9979 14.0879C27.134 14.0879 26.5238 14.0879 24.6114 14.194C23.1234 14.225 21.6532 14.508 20.2604 15.0297C17.8329 15.9539 15.9138 17.8729 14.9897 20.3004C14.4679 21.6933 14.1849 23.1657 14.154 24.6536C14.0722 26.566 14.0479 27.1762 14.0479 32.0401C14.0479 36.904 14.0479 37.5142 14.154 39.4266C14.1849 40.9145 14.4679 42.3847 14.9897 43.7798C15.9138 46.2073 17.8329 48.1263 20.2604 49.0504C21.6532 49.5722 23.1257 49.8552 24.6114 49.8862C26.5238 49.968 27.134 49.9923 31.9979 49.9923C36.8617 49.9923 37.472 49.9923 39.3843 49.8862C40.8723 49.8552 42.3425 49.5722 43.7353 49.0504C46.1628 48.1263 48.0819 46.2073 49.006 43.7798C49.5278 42.3869 49.8108 40.9145 49.8417 39.4266C49.9235 37.5142 49.9479 36.904 49.9479 32.0401C49.9479 27.1762 49.9479 26.566 49.8417 24.6536C49.8108 23.1657 49.5278 21.6955 49.006 20.3004C48.0819 17.8729 46.1628 15.9539 43.7353 15.0297C42.3425 14.508 40.87 14.225 39.3843 14.194C37.472 14.1122 36.8617 14.0879 31.9979 14.0879Z" fill="white"/>
<path id="Vector_3" d="M31.9985 22.7988C26.9179 22.7988 22.7969 26.9177 22.7969 32.0004C22.7969 37.0832 26.9157 41.202 31.9985 41.202C37.0813 41.202 41.2001 37.0832 41.2001 32.0004C41.2001 26.9199 37.0813 22.7988 31.9985 22.7988ZM31.9985 37.972C28.6999 37.972 26.0269 35.299 26.0269 32.0004C26.0269 28.7018 28.6999 26.0289 31.9985 26.0289C35.2971 26.0289 37.97 28.7018 37.97 32.0004C37.97 35.299 35.2971 37.972 31.9985 37.972Z" fill="white"/>
<path id="Vector_4" d="M41.5616 19.2842C42.751 19.2842 43.715 20.2481 43.715 21.4376C43.715 22.627 42.751 23.5909 41.5616 23.5909C40.3721 23.5909 39.4082 22.627 39.4082 21.4376C39.4082 20.2481 40.3721 19.2842 41.5616 19.2842Z" fill="white"/>
</g>
</svg>
