<svg width="64" height="64" viewBox="0 0 64 64" fill="none" xmlns="http://www.w3.org/2000/svg">
<g id="LinkedIn">
<path id="Vector" d="M32 0C49.6604 0 64 14.3396 64 32C64 49.6626 49.6604 64 32 64C14.3396 64 0 49.6604 0 32C0 14.3396 14.3374 0 32 0Z" fill="#1E3791"/>
<g id="Group">
<path id="Vector_2" d="M16.9617 24.8808H23.5191V45.9725H16.9617V24.8808ZM20.2448 14.4014C22.3429 14.4014 24.0453 16.1037 24.0453 18.2018C24.0453 20.2999 22.3429 22.0023 20.2448 22.0023C18.1467 22.0023 16.4443 20.2999 16.4443 18.2018C16.4443 16.1037 18.1467 14.4014 20.2448 14.4014Z" fill="white"/>
<path id="Vector_3" d="M27.6328 24.8809H33.9117V27.7638H34.031C35.3133 25.5729 37.6944 24.2662 40.2303 24.3613C46.8761 24.3613 48.0921 28.7278 48.0921 34.4008V45.9703H41.5413V35.7163C41.5413 33.2711 41.5015 30.1206 38.1388 30.1206C34.7761 30.1206 34.2057 32.778 34.2057 35.5372V45.9703H27.6616L27.635 24.8786L27.6328 24.8809Z" fill="white"/>
</g>
</g>
</svg>
