<svg width="284" height="131" viewBox="0 0 284 131" fill="none" xmlns="http://www.w3.org/2000/svg">
<path d="M88.5 103.1V127.3H99.9L99.8 130.6H85V103.1H88.5ZM31.7 103.1V130.6H47.4L47.5 127.3H35.2V117.8H45.3V114.8H35.2V106.4H47L46.9 103.1H31.7ZM70.4 111C70.4 107.4 69 106.2 65.9 106.2H61.1V115.9H65.8C69 115.9 70.4 114.7 70.4 111ZM69.1 118.1L75.7 130.5H71.6L66 118.7H61.2V130.6H57.7V103.1H65.9C71.4 103.1 74 105.5 74 110.9C74 115.2 72.3 117.6 69.1 118.1ZM13 127.5C16 127.5 17.7 126.3 17.7 122.5C17.7 119.1 16.2 117.7 12.9 117.7H7.1V127.5H13ZM7 114.9H12.6C15.5 114.9 16.7 113.5 16.7 110.5C16.7 107.3 15.4 106.2 12.4 106.2H6.9C7 106.2 7 114.9 7 114.9ZM16.5 116C19.4 116.7 21.1 118.8 21.1 122.7C21.1 127.7 18.8 130.5 12.9 130.5H3.6V103H12.6C17.6 103 20.2 105.2 20.2 109.8C20.1 113.3 18.7 115.2 16.5 116ZM109.2 130.6H112.7V103.1H110.9H109.1V130.6H109.2ZM140.5 103.1V121L140.6 123.9H140.5L139 121.3L128.1 103H124.9V130.6H128V112.1V109.1H128.1L129.6 111.7L141.1 130.6H143.6V103.1H140.5ZM192.2 75C191.4 75.2 190.6 75.3 189.6 75.3C185.4 75.3 183.9 73.5 183.9 66.4C183.9 59.4 185.4 57.5 190.3 57.5C192.4 57.5 194.6 57.9 196.3 58.6L196.9 53.5C195 52.7 192.4 52.3 190 52.3C181.5 52.3 177.9 56.7 177.9 66.6C177.9 76.2 181.1 80.8 189.8 80.8C192.6 80.8 195.5 80.2 197.4 79.3V65.4H192.2V75ZM58.8 52.6H55.9H53V80.1H58.9L58.8 52.6ZM32.4 80.1H38.2V58H44.9L44.8 52.6H25.9L25.8 58H32.4V80.1ZM10 75.4C7.5 75.4 5.3 74.7 3.2 73.6L2.4 78.6C4.5 79.8 7.2 80.5 10.1 80.5C16 80.5 19.5 77.3 19.5 71.9C19.5 62.9 8.1 64.5 8.1 60.1C8.1 58.6 9 57.4 12.1 57.4C14 57.4 15.9 57.8 18 58.5L18.7 53.5C16.8 52.6 14.3 52.1 11.8 52.1C5.5 52.1 2.6 55.7 2.6 60.3C2.6 69.3 14 67.7 14 72.2C14 74.3 12.8 75.4 10 75.4ZM163.6 66.3L163.7 69.2H163.6L153.4 52.6H148.5V80.1H153.6V65.7V62.7H153.7L155.2 65.3L164.6 80.2H168.7V52.6H163.6V66.3ZM84.1 64.1H75.1V58H85.8L85.7 52.6H69.3V80.1H75.1V69.2H84L84.1 64.1ZM138.6 70.8V52.6H132.9V70.7C132.9 73.9 131.7 75.2 128.6 75.2C125.5 75.2 124.2 73.8 124.2 70.7V52.6H118.4V70.7C118.4 77.3 121.9 80.5 128.5 80.5C135.2 80.6 138.6 77.3 138.6 70.8ZM111 52.6H92.1L92 58H98.7V80.1H104.5V58H111.2L111 52.6ZM128.8 28.1V0.600006H123.7V14.3L123.8 17.2H123.7L113.5 0.600006H108.6V28.1H113.7V13.6V10.6H113.8L115.3 13.2L124.7 28.1H128.8ZM6.7 28.1H12.5V6H19.2L19.1 0.600006H0.100002L0 6H6.7V28.1ZM272.1 22.9V16.4H281.2V11.6H272.1V5.90001H282.9L282.8 0.600006H266.4V28.1H283.3L283.4 22.9H272.1ZM185 22.7H174.9V0.600006H169.1V28.1H184.9L185 22.7ZM84 16.7H92.5V28.1H98.3V0.600006H92.5V11.3H84V0.600006H78.3V28.1H84C84 28.1 84 16.7 84 16.7ZM44.4 22.9H33.1V16.4H42.2V11.6H33.1V5.90001H43.9L43.8 0.600006H27.3V28.1H44.2L44.4 22.9ZM153.8 14.3C153.8 7 152.6 5.5 148.8 5.5C145.1 5.5 143.8 7.1 143.8 14.3C143.8 21.6 145.1 23.2 148.8 23.2C152.5 23.2 153.8 21.6 153.8 14.3ZM148.8 28.6C141.1 28.6 137.8 24.5 137.8 14.4C137.8 4.20001 141 0.200012 148.8 0.200012C156.6 0.200012 159.8 4.20001 159.8 14.4C159.8 24.7 156.6 28.6 148.8 28.6ZM250.1 28.1H256V0.600006H253.1H250.2V28.1H250.1ZM63.5 28.6C65.7 28.6 68 28.1 69.7 27.2L69.1 22.3C67.7 22.9 66.2 23.3 64.4 23.3C59.9 23.3 58.3 21.3 58.3 14.1C58.3 7.40001 59.8 5.40001 64.3 5.40001C66.1 5.40001 67.8 5.80001 69.1 6.20001L69.7 1.10001C68.3 0.500006 65.9 0 63.9 0C55.9 0 52.3 4.6 52.3 14C52.2 24.2 55.9 28.6 63.5 28.6ZM207 14.3C207 7 205.8 5.5 202 5.5C198.3 5.5 197 7.1 197 14.3C197 21.6 198.3 23.2 202 23.2C205.8 23.2 207 21.6 207 14.3ZM213 14.3C213 24.7 209.8 28.5 202 28.5C194.3 28.5 191 24.4 191 14.3C191 4.1 194.2 0.100006 202 0.100006C209.8 0.100006 213 4.2 213 14.3ZM235.2 22.9C234.4 23.1 233.5 23.2 232.6 23.2C228.4 23.2 226.9 21.4 226.9 14.3C226.9 7.3 228.4 5.40001 233.3 5.40001C235.4 5.40001 237.6 5.8 239.3 6.5L239.9 1.40001C238 0.600009 235.4 0.200012 233 0.200012C224.5 0.200012 220.9 4.6 220.9 14.5C220.9 24.1 224.2 28.7 232.8 28.7C235.6 28.7 238.6 28.1 240.4 27.2V13.3H235.2V22.9Z" fill="white"/>
</svg>
