<svg width="542" height="712" viewBox="0 0 542 712" fill="none" xmlns="http://www.w3.org/2000/svg">
<g clip-path="url(#clip0_348_15318)">
<path d="M4.32153 458.332L81.0298 707.676L96.8757 421.579L4.32153 458.332Z" stroke="white" stroke-width="10" stroke-linecap="round" stroke-linejoin="round"/>
<path d="M164.941 4.68457L114.882 95.8465L171.783 116.025L164.941 4.68457Z" stroke="white" stroke-width="10" stroke-linecap="round" stroke-linejoin="round"/>
<path d="M81.0298 707.676L205.636 669.482L200.594 586.968L81.0298 707.676Z" stroke="white" stroke-width="10" stroke-linecap="round" stroke-linejoin="round"/>
<path d="M171.783 116.025L188.349 385.187L537.318 246.462L171.783 116.025ZM171.783 116.025L114.882 95.8467L171.783 116.025Z" stroke="white" stroke-width="10" stroke-linecap="round" stroke-linejoin="round"/>
<path d="M188.349 385.187L171.783 116.025L114.882 95.8467L96.8757 421.579L188.349 385.187Z" stroke="white" stroke-width="10" stroke-linecap="round" stroke-linejoin="round"/>
<path d="M188.349 385.187L200.594 586.968L537.318 246.462L188.349 385.187ZM188.349 385.187L96.8757 421.579L188.349 385.187Z" stroke="white" stroke-width="10" stroke-linecap="round" stroke-linejoin="round"/>
<path d="M200.594 586.968L188.349 385.187L96.8756 421.579L81.0298 707.676L200.594 586.968Z" stroke="white" stroke-width="10" stroke-linecap="round" stroke-linejoin="round"/>
</g>
<defs>
<clipPath id="clip0_348_15318">
<rect width="542" height="712" fill="white"/>
</clipPath>
</defs>
</svg>
