<svg width="64" height="64" viewBox="0 0 64 64" fill="none" xmlns="http://www.w3.org/2000/svg">
<g id="YouTube">
<path id="Vector" d="M32 0C49.6626 0 64 14.3396 64 32C64 49.6626 49.6604 64 32 64C14.3396 64 0 49.6604 0 32C0 14.3396 14.3374 0 32 0Z" fill="#1E3791"/>
<path id="Vector_2" d="M49.9213 39.1544C49.9125 41.9776 47.6264 44.2659 44.801 44.2747H19.2014C16.3781 44.2659 14.0899 41.9799 14.0811 39.1544V24.8479C14.0899 22.0246 16.3759 19.7364 19.2014 19.7275H44.801C47.6242 19.7364 49.9125 22.0224 49.9213 24.8479V39.1544ZM28.2947 36.382L37.9849 31.3677L28.2947 26.3535V36.382Z" fill="white"/>
</g>
</svg>
